<svg xmlns="http://www.w3.org/2000/svg" width="33.997" height="42.132" viewBox="0 0 33.997 42.132">
  <g id="Group_448" data-name="Group 448" transform="translate(-3 -0.875)">
    <path id="Path_873" data-name="Path 873" d="M36,24c0,10-7,15-15.319,17.9a2,2,0,0,1-1.34-.02C11,39,4,34,4,24V10A2,2,0,0,1,6,8c4,0,9-2.4,12.479-5.44a2.34,2.34,0,0,1,3.04,0C25.018,5.62,30,8,34,8a2,2,0,0,1,2,2Z" transform="translate(0 0)" fill="none" stroke="#7b38a7" stroke-linecap="round" stroke-linejoin="round" stroke-width="2"/>
    <path id="Path_874" data-name="Path 874" d="M9,14l4,4,8-8" transform="translate(4.999 7.999)" fill="none" stroke="#7b38a7" stroke-linecap="round" stroke-linejoin="round" stroke-width="2"/>
  </g>
</svg>
